PathFileType	4	(X/Y/Z)	C:/Users/beibeiliu/ov580/test_trc\sequence.10_training_dense_right.trc
DataRate	CameraRate	NumFrames	NumMarkers	Units	OrigDataRate	OrigDataStartFrame	OrigNumFrames
120	120	21	19	mm	120	152	302
Frame#	Time	ThumbCMC			ThumbMCP			ThumbIP			ThumbTip			IndexMCP			IndexPIP			IndexTip			MiddleMCP			MiddlePIP			MiddleTip			RingMCP			RingPIP			RingTip			PinkyMCP			PinkyPIP			PinkyTip			BackHand1			BackHand2			BackHand3	
		X0	Y0	Z0	X1	Y1	Z1	X2	Y2	Z2	X3	Y3	Z3	X4	Y4	Z4	X5	Y5	Z5	X6	Y6	Z6	X7	Y7	Z7	X8	Y8	Z8	X9	Y9	Z9	X10	Y10	Z10	X11	Y11	Z11	X12	Y12	Z12	X13	Y13	Z13	X14	Y14	Z14	X15	Y15	Z15	X16	Y16	Z16	X17	Y17	Z17	X18	Y18	Z18	
151	1.25833	132.251	45.6753	15.8018	118.225	59.7699	-2.44833	121.498	80.7244	-17.1031	122.939	93.7762	-33.1496	138.595	103.769	-13.2238	143.876	122.161	-22.5521	145.308	147.272	-30.8728	160.251	110.434	-12.6626	158.504	131.741	-21.6201	157.209	154.541	-27.3081	178.481	109.182	-11.4024	177.247	127.462	-18.0734	176.495	142.702	-24.2737	194.505	93.0679	-6.4231	191.579	111.011	-13.9324	191.797	129.957	-20.7018	175.264	75.2848	16.1967	180.562	55.8659	35.9719	151.262	66.6633	24.2878	
152	1.26667	134.902	39.4613	14.6994	117.644	53.7053	-2.12581	114.559	77.8679	-19.2684	117.439	90.8908	-32.2338	139.146	99.734	-11.4224	139.044	120.778	-20.0005	140.682	142.173	-27.4783	156.63	112.174	-11.9603	152.655	130.424	-19.8303	157.265	153.868	-23.7283	174.283	101.93	-9.46158	170.62	119.875	-15.9935	169.525	140.048	-21.3995	188.358	89.3072	-7.47098	190.442	110.602	-14.2396	187.314	124.93	-17.6263	178.206	71.9461	17.4218	174.596	49.7878	33.7688	148.751	59.5928	24.9881	
153	1.275	131.475	32.2769	15.8693	114.542	50.1443	-1.93206	111.289	73.5348	-17.1803	111.838	86.0172	-32.257	130.146	98.4484	-9.27267	132.729	117.97	-16.3438	134.882	138.243	-22.7022	149.281	103.318	-7.81316	149.397	129.526	-16.2908	146.669	153.436	-19.97	166.944	102.008	-7.45759	166.53	120.584	-13.8478	166.426	139.753	-17.2606	184.299	88.1189	-6.25894	183.509	107.148	-12.8552	178.48	125.482	-16.3752	173.419	68.8794	16.041	174.267	51.3886	32.9703	148.322	55.3347	25.8105	
154	1.28333	130.466	28.5703	14.2714	112.495	46.1072	-2.64435	109.334	66.444	-17.1758	108.905	83.2343	-31.5108	128.164	96.3868	-8.07181	125.575	116.211	-14.0996	127.99	136.067	-20.0888	145.936	102.403	-6.45894	143.96	122.698	-12.3215	140.619	149.773	-15.5878	164.277	95.8264	-5.89795	164.447	115.762	-11.2741	157.367	135.513	-13.6252	181.676	84.3751	-6.27295	178.989	101.407	-10.4329	176.433	119.812	-10.7433	168.112	61.9933	15.2705	174.758	44.8789	31.802	143.035	52.6626	26.5392	
155	1.29167	129.544	23.9611	14.2851	109.586	41.34	-2.63812	104.354	62.8913	-16.8449	107.941	78.0617	-29.4305	125.058	91.3186	-5.11499	124.09	112.798	-12.9578	120.619	129.139	-15.7976	138.837	100.572	-4.20936	139.972	122.969	-9.43414	135.792	146.918	-11.9562	162.647	92.4411	-5.74579	158.548	115.165	-8.90647	152.701	135.635	-11.7333	177.926	80.7784	-5.1377	174.6	101.827	-9.46006	169.392	119.723	-8.89066	168.176	63.3876	14.704	172.928	41.1715	30.0249	143.861	47.312	25.7859	
156	1.3	125.091	22.3686	13.9931	109.558	35.4781	-2.8378	103.929	56.219	-16.4062	101.507	72.474	-29.0823	120.029	88.0089	-3.60123	119.042	110.484	-9.99954	117.101	127.431	-14.5314	138.98	97.6387	-4.46166	132.529	114.944	-8.29587	133.868	144.135	-11.1363	154.403	93.8653	-4.3166	150.696	114.384	-8.70971	146.662	133.027	-10.91	175.137	79.7142	-6.2586	168.18	96.8873	-8.94792	166.581	118.402	-7.28996	164.363	60.3519	13.3776	169.137	37.7694	29.2661	142.5	47.0156	27.2313	
157	1.30833	123.431	17.2891	13.5042	106.688	38.5433	-3.66634	101.18	58.1115	-16.9931	102.642	73.6814	-29.9781	120.378	82.2929	-3.77608	114.372	105.067	-9.59373	113.331	127.767	-14.5558	134.315	96.6121	-4.79678	132.842	117.35	-10.1105	131.423	141.162	-11.0378	157.451	89.5997	-6.2806	150.439	108.34	-8.48556	148.799	129.327	-10.477	174.044	77.6043	-6.52392	167.084	94.1059	-9.0334	165.874	111.961	-8.34991	164.707	53.7915	15.7594	167.724	35.5867	31.3146	138.337	42.8145	25.6472	
158	1.31667	122.702	20.2772	11.6133	105.455	32.307	-4.08133	102.343	54.5111	-17.9039	99.8469	72.5196	-32.2472	120.267	83.1254	-4.06326	114.048	100.307	-9.94761	115.305	123.888	-14.0635	137.113	91.4371	-5.08845	132.568	112.049	-9.56872	131.622	136.634	-11.4644	154.812	86.6391	-6.37608	149.261	105.132	-10.1335	142.756	128.548	-10.4673	173.996	75.3707	-7.30332	165.447	93.7073	-10.1594	167.449	110.44	-10.0117	163.44	56.0434	12.401	166.305	34.2466	26.9071	137.485	41.2269	24.2241	
159	1.325	122.458	13.9547	13.0958	109.5	32.0571	-4.4208	103.217	48.7496	-17.0159	101.86	69.9088	-32.9333	117.997	80.5924	-5.53638	116.417	96.7982	-11.5391	112.193	120.938	-14.9028	136	86.8669	-5.76603	132.72	113.563	-11.6033	130.709	131.541	-12.391	152.386	82.2231	-8.06474	148.594	104.928	-10.8955	146.118	123.148	-12.4796	170.391	69.8975	-8.74839	167.822	90.8929	-11.1575	161.169	107.955	-11.2994	166.04	49.8361	12.8782	170.961	33.3364	25.8326	142.281	42.1553	23.8021	
160	1.33333	125.473	16.2998	11.2896	104.276	27.2705	-5.49251	97.8549	46.4926	-19.1155	99.2282	65.7507	-34.5207	117.09	77.0441	-6.34554	116.524	95.2327	-13.295	114.259	120.751	-16.3346	132.558	88.1747	-8.09361	128.3	109.22	-12.7415	129.566	128.556	-13.7602	151.308	84.1336	-9.00167	146.366	101.973	-12.8828	143.912	123.122	-14.7798	171.396	71.1747	-9.78832	165.094	85.354	-12.6832	163.778	103.773	-12.9777	163.424	47.3212	13.625	170.156	33.0121	26.1289	138.421	36.6024	24.0891	
161	1.34167	123.73	10.857	12.4049	104.78	26.9969	-6.13643	99.1489	48.2495	-20.1495	98.1694	59.8498	-32.8433	117.476	74.1963	-6.33975	117.728	94.5309	-14.0193	113.885	118.896	-18.0733	131.379	86.1282	-8.67473	133.123	103.99	-14.2352	125.717	126.687	-13.6287	152.419	80.6785	-10.3654	147.556	101.118	-13.9799	144.291	117.425	-15.6219	169.526	69.8391	-10.6667	168.585	85.8559	-13.608	165.027	103.94	-13.1933	159.328	48.7171	12.2568	168.01	27.9974	30.0527	137.903	35.2186	25.7511	
162	1.35	122.816	12.6127	12.4269	103.151	25.3568	-5.36433	99.221	43.9333	-18.5627	97.895	58.2203	-32.7096	118.228	71.8066	-8.02699	117.447	92.6119	-14.7304	110.46	111.837	-17.622	133.042	85.4478	-9.53649	128.616	103.789	-13.5156	124.995	130.093	-14.1136	149.379	80.3364	-10.8	145.258	98.6156	-13.6439	141.124	120.895	-16.7733	172.883	67.2791	-10.3869	165.484	85.5028	-13.7239	161.35	104.857	-14.7354	162.575	50.0726	9.92053	169.03	30.598	28.7256	135.08	36.678	21.6681	
163	1.35833	120.981	9.17559	12.5506	104.466	27.5941	-5.65725	100.677	46.1509	-19.9352	96.6547	59.3025	-33.4949	113.337	76.7291	-9.792	114.532	93.4426	-15.9484	112.998	117.16	-18.5893	130.601	83.3517	-8.97752	131.552	104.537	-14.7049	124.868	125.782	-15.7217	151.339	80.7334	-10.9904	148.738	100.547	-14.9292	144.902	118.087	-16.9891	169.21	68.7287	-11.6992	163.273	85.2909	-14.7203	159.718	105.807	-13.4852	159.487	48.2347	11.6966	166.552	32.4858	27.722	137.337	33.3813	22.8387	
164	1.36667	124.195	11.3847	11.2125	105.043	25.9885	-6.32779	99.4899	47.413	-20.2418	98.0277	57.8819	-32.5682	118.115	74.7692	-9.18499	112.156	96.5512	-16.4767	110.855	113.758	-19.7492	130.764	85.6935	-10.8213	128.247	105.545	-15.853	127.123	130.385	-16.3123	150.882	81.4883	-11.8752	148.138	100.998	-16.2787	143.726	121.553	-17.0958	170.14	68.4533	-11.4636	168.553	85.8107	-15.5174	160.527	107.156	-14.5591	162.179	49.7406	11.4271	169.348	29.3006	28.4668	138.264	33.7306	22.3405	
165	1.375	126.292	10.9754	12.6635	106.085	26.5271	-6.34016	98.3546	48.8686	-20.9094	99.6897	61.9408	-34.0109	116.049	73.7816	-9.52244	114.021	97.333	-16.3896	111.022	114.459	-20.1226	137.672	84.012	-11.074	132.305	108.717	-16.9784	130.532	131.02	-17.0341	154.892	81.835	-12.5285	146.89	98.8092	-16.3721	146.678	121.933	-18.1726	166.687	71.6099	-12.5689	164.901	85.1376	-15.4467	162.965	107.118	-15.3863	161.848	47.4126	12.7437	170.211	32.4726	25.8752	139.307	36.1228	21.7497	
166	1.38333	125.723	16.7145	10.9058	108.393	30.0347	-6.02695	99.653	45.0139	-19.1039	100.159	60.7001	-32.01	121.667	76.5986	-9.93322	118.059	98.9848	-16.981	113.329	117.687	-20.326	134.371	88.0704	-10.7504	129.888	108.582	-16.0059	127.192	134.098	-17.3573	154.992	81.8958	-12.1308	152.503	103.94	-16.9988	147.775	122.282	-18.3352	169.676	67.8639	-12.7824	169.125	87.7231	-16.6531	161.165	104.648	-17.8209	161.129	50.8875	8.88576	169.809	34.162	24.406	139.887	38.8814	22.8266	
167	1.39167	124.021	15.3816	11.9063	108.45	30.0108	-4.75192	100.033	52.7539	-19.712	100.882	62.8929	-33.2005	117.63	79.2257	-8.62579	116.814	97.253	-15.0695	116.995	122.304	-20.6565	134.579	88.3462	-10.196	133.293	107.689	-16.1095	132.308	135.019	-16.381	156.57	83.2035	-12.3759	150.961	106.005	-16.0431	150.419	124.074	-18.8827	173.627	71.7506	-13.258	168.03	88.2377	-16.9152	165.403	107.783	-18.987	163.622	52.6191	8.20982	172.062	34.8197	26.5155	142.295	41.9117	22.8059	
168	1.4	124.051	14.8919	12.3739	110.81	33.0705	-5.25819	104.361	50.1763	-17.8281	102.883	65.835	-31.7496	119.146	77.7293	-9.06557	120.11	102.136	-16.6879	117.339	121.455	-20.3686	136.447	88.0317	-10.3575	133.838	108.301	-15.9748	134.409	132.925	-17.778	159.004	85.4967	-12.9012	154.194	109.405	-16.5633	148.197	127.524	-18.6743	175.101	77.3881	-13.7732	167.391	92.3767	-17.7573	167.163	109.611	-16.8596	165.506	53.5568	10.3863	169.261	38.3287	25.5977	144.305	40.6846	22.6361	
169	1.40833	126.051	18.5033	13.7755	107.442	34.4203	-3.18657	102.61	51.4224	-16.7299	98.0022	68.385	-34.1368	123.625	85.0349	-10.9144	119.421	100.935	-16.6097	116.36	121.323	-20.7734	137.125	90.3658	-11.1223	133.049	113.796	-16.8706	133.39	136.427	-18.0665	157.233	86.0178	-14.195	153.272	109.653	-18.3219	148.675	129.167	-20.717	174.904	78.5518	-14.8534	171.645	90.8653	-18.4524	164.33	113.318	-19.5458	166.697	57.7233	9.39751	169.309	35.0566	26.8056	144.135	42.2689	22.004	
170	1.41667	126.753	25.6179	12.8508	105.643	37.0526	-2.84438	100.234	57.769	-18.7467	101.783	67.9324	-32.5663	122.692	83.5274	-11.741	120.851	101.873	-19.3373	117.931	128.255	-24.743	140.313	93.7866	-14.9956	132.892	116.68	-21.3353	134.354	140.008	-23.7565	154.958	87.8118	-16.5825	153.624	106.363	-22.0371	150.953	129.65	-25.2208	173.334	77.8678	-17.0855	168.251	96.2066	-22.622	167.075	115.882	-24.7018	166.631	59.368	5.82735	170.154	40.9436	25.7428	145.948	45.614	21.3071	
171	1.425	122.824	29.0369	13.9751	108.299	40.3294	-1.33937	103.479	59.8455	-18.6605	99.9224	71.092	-34.1826	120.67	87.625	-16.0605	119.584	105.712	-25.2792	116.311	126.99	-32.1001	137.35	97.9476	-21.3008	135.428	117.329	-29.197	133.526	140.076	-31.801	157.875	88.4785	-22.2545	150.181	109.87	-30.0183	150.094	130.86	-34.5115	171.675	80.8849	-21.6185	168.354	92.6158	-27.5183	163.417	115.026	-31.9883	164.351	60.3527	4.93773	171.03	46.0938	21.7866	141.314	50.3409	21.7511	
